<svg width="20" height="21" viewBox="0 0 20 21" fill="none" xmlns="http://www.w3.org/2000/svg">
<path d="M11.5 0.514991C11.0439 0.251686 10.5266 0.113068 10 0.113068C9.47339 0.113068 8.95606 0.251686 8.5 0.514991L1 4.84499C0.695969 5.02052 0.443498 5.27299 0.267962 5.57702C0.0924258 5.88105 8.91844e-06 6.22593 0 6.57699V20C0 20.2652 0.105357 20.5196 0.292893 20.7071C0.48043 20.8946 0.734784 21 1 21H7C7.26522 21 7.51957 20.8946 7.70711 20.7071C7.89464 20.5196 8 20.2652 8 20V14H12V20C12 20.2652 12.1054 20.5196 12.2929 20.7071C12.4804 20.8946 12.7348 21 13 21H19C19.2652 21 19.5196 20.8946 19.7071 20.7071C19.8946 20.5196 20 20.2652 20 20V6.57699C20 6.22593 19.9076 5.88105 19.732 5.57702C19.5565 5.27299 19.304 5.02052 19 4.84499L11.5 0.514991Z" fill="white"/>
</svg>
