<svg width="10" height="16" viewBox="0 0 10 16" fill="none" xmlns="http://www.w3.org/2000/svg">
<path d="M0.891845 0.470011C0.751395 0.610637 0.672505 0.801261 0.672505 1.00001C0.672505 1.19876 0.751395 1.38939 0.891845 1.53001L7.36185 8.00001L0.891845 14.47C0.818158 14.5387 0.759056 14.6215 0.718064 14.7135C0.677072 14.8055 0.655031 14.9048 0.653254 15.0055C0.651477 15.1062 0.670002 15.2062 0.707723 15.2996C0.745444 15.393 0.801588 15.4778 0.872807 15.549C0.944026 15.6203 1.02886 15.6764 1.12225 15.7141C1.21564 15.7519 1.31567 15.7704 1.41637 15.7686C1.51707 15.7668 1.61638 15.7448 1.70838 15.7038C1.80038 15.6628 1.88318 15.6037 1.95185 15.53L9.48185 8.00001L1.95185 0.470011C1.81122 0.329561 1.6206 0.250671 1.42185 0.250671C1.22309 0.250671 1.03247 0.329561 0.891845 0.470011Z" fill="white"/>
</svg>
