<svg width="10" height="16" viewBox="0 0 10 16" fill="none" xmlns="http://www.w3.org/2000/svg">
<path d="M8.95188 0.470011C9.09233 0.610637 9.17122 0.801261 9.17122 1.00001C9.17122 1.19876 9.09233 1.38939 8.95188 1.53001L2.48188 8.00001L8.95188 14.47C9.02556 14.5387 9.08467 14.6215 9.12566 14.7135C9.16665 14.8055 9.18869 14.9048 9.19047 15.0055C9.19225 15.1062 9.17372 15.2062 9.136 15.2996C9.09828 15.393 9.04213 15.4778 8.97091 15.549C8.8997 15.6203 8.81486 15.6764 8.72148 15.7141C8.62809 15.7519 8.52806 15.7704 8.42735 15.7686C8.32665 15.7668 8.22734 15.7448 8.13534 15.7038C8.04334 15.6628 7.96054 15.6037 7.89188 15.53L0.361877 8.00001L7.89188 0.470011C8.0325 0.329561 8.22313 0.250671 8.42188 0.250671C8.62063 0.250671 8.81125 0.329561 8.95188 0.470011Z" fill="white"/>
</svg>
